<?xml version="1.0" standalone="no"?><!DOCTYPE svg PUBLIC "-//W3C//DTD SVG 1.1//EN" "http://www.w3.org/Graphics/SVG/1.1/DTD/svg11.dtd"><svg t="1591175051724" class="icon" viewBox="0 0 1024 1024" version="1.1" xmlns="http://www.w3.org/2000/svg" p-id="1535" xmlns:xlink="http://www.w3.org/1999/xlink" width="200" height="200"><defs><style type="text/css"></style></defs><path d="M290.133333 494.933333c-10.24 0-17.066667-6.826667-17.066666-17.066666V273.066667c0-47.786667 37.546667-85.333333 85.333333-85.333334S443.733333 225.28 443.733333 273.066667v68.266666c0 10.24-6.826667 17.066667-17.066666 17.066667s-17.066667-6.826667-17.066667-17.066667V273.066667c0-27.306667-23.893333-51.2-51.2-51.2S307.2 245.76 307.2 273.066667v204.8c0 10.24-6.826667 17.066667-17.066667 17.066666z" fill="" p-id="1536"></path><path d="M563.2 358.4c-10.24 0-17.066667-6.826667-17.066667-17.066667V238.933333c0-27.306667-23.893333-51.2-51.2-51.2S443.733333 211.626667 443.733333 238.933333v102.4c0 10.24-6.826667 17.066667-17.066666 17.066667s-17.066667-6.826667-17.066667-17.066667V238.933333c0-47.786667 37.546667-85.333333 85.333333-85.333333S580.266667 191.146667 580.266667 238.933333v102.4c0 10.24-6.826667 17.066667-17.066667 17.066667z" fill="" p-id="1537"></path><path d="M699.733333 358.4c-10.24 0-17.066667-6.826667-17.066666-17.066667V273.066667c0-27.306667-23.893333-51.2-51.2-51.2S580.266667 245.76 580.266667 273.066667v68.266666c0 10.24-6.826667 17.066667-17.066667 17.066667s-17.066667-6.826667-17.066667-17.066667V273.066667c0-47.786667 37.546667-85.333333 85.333334-85.333334S716.8 225.28 716.8 273.066667v68.266666c0 10.24-6.826667 17.066667-17.066667 17.066667z" fill="" p-id="1538"></path><path d="M559.786667 870.4c-95.573333 0-180.906667-34.133333-249.173334-95.573333l-92.16-85.333334c-30.72-27.306667-47.786667-64.853333-47.786666-102.4v-64.853333c0-37.546667 17.066667-75.093333 47.786666-102.4l51.2-47.786667c6.826667-6.826667 17.066667-6.826667 23.893334 0 6.826667 6.826667 6.826667 17.066667 0 23.893334L238.933333 443.733333c-23.893333 20.48-34.133333 47.786667-34.133333 78.506667v64.853333c0 30.72 13.653333 58.026667 34.133333 78.506667L331.093333 750.933333c58.026667 54.613333 139.946667 85.333333 225.28 85.333334 143.36 0 259.413333-105.813333 259.413334-238.933334V341.333333c0-27.306667-23.893333-51.2-51.2-51.2S716.8 314.026667 716.8 341.333333v34.133334c0 10.24-6.826667 17.066667-17.066667 17.066666s-17.066667-6.826667-17.066666-17.066666v-34.133334c0-47.786667 37.546667-85.333333 85.333333-85.333333S853.333333 293.546667 853.333333 341.333333v256c0 150.186667-133.12 273.066667-293.546666 273.066667z" fill="" p-id="1539"></path></svg>