<?xml version="1.0" standalone="no"?><!DOCTYPE svg PUBLIC "-//W3C//DTD SVG 1.1//EN" "http://www.w3.org/Graphics/SVG/1.1/DTD/svg11.dtd"><svg t="1559556107897" class="icon" style="" viewBox="0 0 1024 1024" version="1.1" xmlns="http://www.w3.org/2000/svg" p-id="1236" xmlns:xlink="http://www.w3.org/1999/xlink" width="200" height="200"><defs><style type="text/css"></style></defs><path d="M609.28 115.2m-53.76 0a2.1 2.1 0 1 0 107.52 0 2.1 2.1 0 1 0-107.52 0Z" fill="#d81e06" p-id="1237"></path><path d="M445.44 153.6m-35.84 0a1.4 1.4 0 1 0 71.68 0 1.4 1.4 0 1 0-71.68 0Z" fill="#d81e06" p-id="1238"></path><path d="M540.16 245.76m-28.16 0a1.1 1.1 0 1 0 56.32 0 1.1 1.1 0 1 0-56.32 0Z" fill="#d81e06" p-id="1239"></path><path d="M483.84 28.16m-28.16 0a1.1 1.1 0 1 0 56.32 0 1.1 1.1 0 1 0-56.32 0Z" fill="#d81e06" p-id="1240"></path><path d="M514.56 453.12m-20.48 0a0.8 0.8 0 1 0 40.96 0 0.8 0.8 0 1 0-40.96 0Z" fill="#d81e06" p-id="1241"></path><path d="M537.6 565.76m-20.48 0a0.8 0.8 0 1 0 40.96 0 0.8 0.8 0 1 0-40.96 0Z" fill="#d81e06" p-id="1242"></path><path d="M483.84 670.72m-38.4 0a1.5 1.5 0 1 0 76.8 0 1.5 1.5 0 1 0-76.8 0Z" fill="#d81e06" p-id="1243"></path><path d="M819.2 926.72c-5.12-10.24-17.92-38.4-35.84-71.68C742.4 768 640 560.64 634.88 529.92c-5.12-28.16-2.56-115.2 0-166.4l25.6 0c15.36 0 25.6-12.8 25.6-25.6 0-15.36-12.8-25.6-25.6-25.6L373.76 312.32c-15.36 0-25.6 12.8-25.6 25.6 0 15.36 12.8 25.6 25.6 25.6l28.16 0c2.56 56.32 2.56 145.92 0 163.84-5.12 20.48-89.6 179.2-138.24 273.92-51.2 97.28-64 122.88-66.56 130.56-2.56 7.68-12.8 35.84 5.12 58.88 12.8 17.92 33.28 28.16 66.56 30.72 2.56 0 163.84 2.56 309.76 2.56 117.76 0 225.28-2.56 232.96-5.12C824.32 1008.64 847.36 985.6 819.2 926.72zM271.36 970.24c-23.04-2.56-28.16-7.68-28.16-7.68 0 0-2.56-2.56 2.56-12.8 2.56-7.68 33.28-66.56 64-125.44 110.08-209.92 140.8-271.36 143.36-289.28 5.12-28.16 2.56-138.24 0-171.52l130.56 0c-2.56 46.08-5.12 138.24 2.56 174.08 5.12 30.72 61.44 148.48 153.6 337.92 15.36 33.28 28.16 58.88 33.28 69.12 5.12 10.24 7.68 17.92 7.68 23.04C704 972.8 325.12 975.36 271.36 970.24z" p-id="1244"></path><path d="M407.04 750.08c-15.36 12.8-94.72 161.28-87.04 176.64 7.68 12.8 378.88 5.12 391.68 2.56 12.8-2.56-74.24-168.96-87.04-179.2C614.4 742.4 422.4 737.28 407.04 750.08z" fill="#d81e06" p-id="1245"></path></svg>